<svg width="40" height="41" viewBox="0 0 40 41" fill="none" xmlns="http://www.w3.org/2000/svg">
<ellipse cx="20" cy="20.0303" rx="20" ry="20.0132" fill="#61C4A1"/>
<path d="M27.76 23.9532C26.4636 22.9191 25.148 22.2927 23.8675 23.3252L23.1029 23.9493C22.5435 24.4022 21.5034 26.5188 17.482 22.2045C13.4615 17.8956 15.854 17.2247 16.4143 16.7757L17.1831 16.1509C18.4568 15.116 17.9761 13.8133 17.0574 12.4723L16.5031 11.66C15.5802 10.3222 14.5753 9.44352 13.2982 10.4768L12.6081 11.0391C12.0437 11.4226 10.4659 12.6691 10.0832 15.0371C9.62262 17.8785 11.0756 21.1321 14.4044 24.7022C17.7291 28.2737 20.9842 30.0677 24.0677 30.0365C26.6303 30.0107 28.1779 28.7283 28.6619 28.262L29.3545 27.6989C30.6282 26.6664 29.8368 25.6152 28.5396 24.5788L27.76 23.9532Z" fill="white"/>
</svg>
